<svg version="1.1" id="Layer_1" xmlns="http://www.w3.org/2000/svg" xmlns:xlink="http://www.w3.org/1999/xlink" x="0px" y="0px"
	 width="100%" viewBox="0 0 500 500" enable-background="new 0 0 500 500" xml:space="preserve">
<path fill="#FEFFFF" opacity="1.000000" stroke="none" 
	d="
M329.000000,501.000000 
	C219.333359,501.000000 110.166718,501.000000 1.000059,501.000000 
	C1.000039,334.333405 1.000039,167.666794 1.000020,1.000148 
	C167.666565,1.000099 334.333130,1.000099 500.999756,1.000049 
	C500.999847,167.666519 500.999847,334.333038 500.999939,500.999786 
	C443.833344,501.000000 386.666656,501.000000 329.000000,501.000000 
M329.265778,340.004944 
	C327.876801,339.715973 326.487823,339.427002 324.279175,339.060944 
	C321.277771,339.045746 318.038513,338.736420 318.682129,343.705109 
	C318.682129,343.705109 318.398285,343.837341 317.755310,343.403717 
	C315.145660,343.968811 312.778076,344.669952 314.992432,348.509491 
	C314.992432,348.509491 314.833008,348.983154 314.240601,349.293427 
	C313.156555,348.550354 312.067932,347.813843 310.989624,347.062531 
	C309.584503,346.083557 308.187531,345.092834 306.401245,343.918274 
	C306.154114,343.751038 305.985016,343.525299 305.906921,342.488190 
	C303.001801,341.143982 299.489990,338.006531 297.291260,338.750397 
	C284.296082,343.147003 282.198944,345.740051 284.903870,359.891998 
	C285.270996,361.812836 286.414154,364.660065 287.828491,365.113983 
	C293.055969,366.791718 298.506439,368.119476 303.959045,368.596680 
	C306.459167,368.815460 309.378387,367.141144 309.097443,363.221100 
	C308.947784,361.132996 309.590637,358.988129 310.000275,356.999451 
	C310.000275,356.999451 309.871277,356.873901 310.646088,356.967590 
	C311.476044,357.963135 312.620880,358.831909 313.081543,359.976105 
	C315.100708,364.991241 318.891785,367.665771 324.078674,367.930176 
	C330.136658,368.239014 336.222473,368.002350 340.855133,368.002350 
	C343.116699,365.395782 344.688904,363.583740 346.271667,361.806580 
	C346.271667,361.806580 346.280853,361.761261 346.182556,362.497101 
	C349.221008,368.509613 355.977783,370.698944 363.331543,367.655396 
	C366.076050,366.519531 368.321045,365.872498 371.217224,367.352570 
	C372.334076,367.923370 374.394043,366.648682 376.648163,366.040375 
	C377.069214,365.946350 377.490295,365.852356 378.332764,366.328644 
	C378.835358,366.122528 379.751160,365.960632 379.778656,365.703705 
	C380.196411,361.797180 380.482239,357.876862 380.836060,353.963074 
	C380.941803,352.793182 381.161591,351.633606 381.329132,350.469299 
	C382.712585,350.730042 384.817261,350.532227 385.333557,351.344299 
	C386.510590,353.195679 387.051514,355.507324 387.585571,357.696716 
	C388.171204,360.097595 388.458771,362.571198 389.054718,365.391785 
	C389.054718,365.391785 389.115967,365.805908 389.058075,366.555511 
	C390.511993,371.392029 394.401062,365.653137 396.417114,369.010986 
	C397.300690,366.377899 397.956665,364.423096 398.362854,363.212616 
	C401.545288,364.645355 404.622345,365.794647 407.473358,367.356567 
	C417.732422,372.976990 429.594879,362.853424 428.180664,352.026123 
	C427.422028,346.217804 428.651245,340.167847 428.632599,334.228088 
	C428.629211,333.164459 426.911133,332.106262 425.119080,330.986542 
	C423.102509,331.011993 421.085968,331.037445 418.258850,331.174408 
	C417.838745,332.660370 417.109589,334.135437 417.056549,335.634399 
	C416.897736,340.123047 416.932739,344.622559 417.027985,349.114960 
	C417.105164,352.756714 415.662048,355.890869 412.021088,355.598663 
	C410.524078,355.478577 408.420685,351.623596 408.202332,349.315247 
	C407.802948,345.093628 408.802582,340.759460 408.818146,336.470764 
	C408.826599,334.142151 408.567719,330.182281 407.455566,329.801300 
	C404.687958,328.853210 400.960083,328.681854 398.411591,329.882935 
	C396.890381,330.599823 396.536377,334.460968 396.273712,336.973114 
	C396.057526,339.040985 396.748383,341.203674 397.065430,343.531189 
	C393.755859,341.896271 391.411377,340.308960 388.824921,339.579834 
	C386.184235,338.835388 383.305969,338.933655 381.622864,338.769440 
	C380.148926,335.399170 378.991516,332.752655 377.405975,330.025177 
	C377.405975,330.025177 377.008179,329.848541 376.905548,329.132263 
	C375.126404,328.674438 373.150635,327.487396 371.607117,327.903503 
	C367.853149,328.915466 368.475922,332.634308 369.196014,334.989685 
	C370.883606,340.509583 368.058441,341.757843 363.287109,342.074554 
	C363.287109,342.074554 363.006683,341.803894 362.727325,341.401703 
	C362.460632,341.164520 362.153564,341.086853 361.959076,341.152588 
	C361.959076,341.152588 361.823853,341.225983 361.875946,340.475189 
	C358.959076,335.686951 356.528137,339.215851 353.401733,341.196594 
	C352.975800,341.253571 352.549896,341.310516 351.840820,340.803375 
	C351.244171,341.229340 350.647552,341.655304 350.000061,342.011749 
	C350.000061,342.011749 350.074463,342.055145 349.320435,342.018524 
	C347.410065,342.797791 345.499695,343.577057 343.589172,344.355988 
	C342.095276,338.699310 339.722260,337.597565 335.138062,340.906097 
	C334.109131,340.913177 333.080200,340.920258 331.955597,340.356873 
	C331.300507,340.250641 330.645386,340.144379 329.265778,340.004944 
M207.860031,342.306366 
	C207.860031,342.306366 207.724152,342.292542 207.805603,341.548431 
	C202.940308,337.845367 201.938431,337.748016 199.348282,340.977203 
	C198.943085,341.077026 198.537872,341.176849 197.824554,340.532196 
	C197.830170,338.632141 198.235519,336.621246 197.746536,334.858368 
	C197.034912,332.292877 195.918427,329.731628 194.370804,327.608704 
	C194.101639,327.239502 190.853302,329.042145 188.585831,330.030731 
	C188.585831,330.030731 188.154083,330.104767 187.401840,330.116180 
	C186.779724,332.085571 185.852036,334.019684 185.619217,336.034058 
	C185.373520,338.160004 185.790619,340.362549 185.862946,341.592590 
	C181.210068,340.659851 176.970490,338.790680 173.042191,339.303955 
	C168.963242,339.836884 165.185486,342.674988 161.173676,344.552887 
	C160.711548,344.152039 159.448410,343.056396 157.632385,341.658630 
	C157.431229,341.598877 157.230087,341.539093 156.885849,340.803284 
	C154.103836,338.833466 140.294006,338.219116 137.849258,340.228333 
	C136.871902,341.031525 136.569672,342.656189 135.741409,344.362671 
	C135.479507,344.569000 135.217621,344.775330 134.496597,345.206177 
	C134.353622,345.504944 134.210648,345.803741 134.073090,346.065063 
	C134.073090,346.065063 134.102188,346.098297 133.383072,346.100769 
	C132.042816,347.756409 130.702545,349.412048 130.049103,350.219238 
	C127.735367,347.128693 125.902428,342.871765 122.668587,340.737030 
	C115.921509,336.283142 106.214973,340.421814 102.460312,347.798035 
	C100.213608,352.211823 98.319641,355.864380 104.030640,359.374176 
	C104.030640,359.374176 104.121048,359.773102 104.034454,360.541840 
	C104.817497,366.033447 109.666046,366.272156 113.466614,368.037781 
	C118.133446,370.205872 122.130615,368.034821 125.539581,365.762390 
	C126.854912,364.885620 126.116371,360.963287 126.375740,358.434875 
	C126.423782,357.966522 126.769295,357.528717 127.314125,356.883331 
	C127.314125,356.883331 127.696381,356.815247 128.489075,356.929047 
	C129.737976,358.437592 131.515701,359.759979 132.125824,361.493378 
	C133.399780,365.112640 135.618713,366.459015 139.842453,365.942230 
	C140.219315,366.059387 140.596176,366.176544 141.317307,366.687347 
	C141.652786,366.741608 141.988266,366.795898 142.672043,366.807861 
	C142.672043,366.807861 142.987549,366.961395 143.114517,367.667786 
	C147.732559,367.192383 152.350601,366.717010 157.490280,366.080566 
	C157.667938,366.041260 157.845612,366.001953 158.707291,365.909821 
	C159.849930,364.649017 160.992569,363.388184 162.156296,362.104126 
	C168.644760,369.272949 176.713699,370.696442 183.797211,365.999176 
	C184.870682,365.996246 185.944168,365.993317 187.614456,365.943665 
	C187.811310,365.911011 188.008179,365.878357 188.619919,365.954681 
	C188.619919,365.954681 188.987946,366.175018 189.171600,366.904724 
	C195.056900,369.284668 197.582626,367.495575 197.096451,361.501312 
	C196.869308,358.700836 196.835648,355.822968 197.253830,353.061890 
	C197.423843,351.939301 198.988815,350.270325 199.989746,350.218658 
	C201.308853,350.150513 203.646957,351.202942 203.879181,352.172913 
	C204.590240,355.142944 205.108337,358.413910 204.571136,361.361908 
	C203.935333,364.850952 205.034653,366.665588 208.844894,367.945007 
	C212.891113,367.943604 216.940552,368.023407 220.980545,367.864075 
	C221.686249,367.836212 222.352280,366.802063 223.581772,365.864227 
	C223.763977,365.243927 223.946198,364.623596 224.726288,363.606689 
	C224.971405,362.086670 225.273712,360.573181 225.447220,359.045013 
	C225.666351,357.114929 225.780472,355.172882 226.053818,351.851501 
	C232.600845,357.695953 238.137650,358.461548 243.595306,351.773407 
	C244.082581,355.325439 243.740479,358.139282 244.202454,360.814301 
	C244.512054,362.606934 245.962494,364.202545 247.050064,365.896515 
	C247.050064,365.896515 247.137192,366.016144 247.180618,366.713593 
	C249.310928,368.618652 251.508118,371.204987 253.498566,365.918457 
	C253.728165,365.605988 253.957748,365.293488 254.945190,364.789124 
	C255.194946,359.354980 256.246033,353.806488 255.490997,348.515717 
	C254.553406,341.945953 256.827087,339.137909 264.120178,340.887360 
	C264.120178,346.923187 263.999084,353.117371 264.203674,359.300812 
	C264.256104,360.885895 265.337097,362.436981 266.153778,364.610413 
	C268.621796,364.880859 271.089783,365.151276 274.000946,365.470276 
	C274.000946,359.154816 274.004974,353.023743 273.999939,346.892670 
	C273.993256,338.706665 273.990875,338.711853 281.827942,337.764893 
	C282.103027,337.731659 282.339813,337.381134 283.459747,336.489929 
	C282.739197,334.787445 281.889832,332.780487 280.834259,330.069885 
	C279.800781,329.738220 278.767609,329.121216 277.733765,329.120148 
	C269.703278,329.111755 261.618225,329.825500 253.659119,329.107269 
	C247.144409,328.519379 243.825760,331.305328 240.573044,336.275970 
	C238.739365,339.078125 237.395370,344.174683 231.978256,341.993378 
	C231.978256,341.993378 231.898727,342.112976 231.985535,341.324310 
	C230.298386,338.036530 229.278854,334.023499 226.727341,331.674683 
	C224.398621,329.530945 220.562195,326.867920 216.561508,331.144989 
	C216.342041,331.421783 216.122589,331.698547 215.132812,332.179291 
	C214.757843,334.975128 214.674179,337.854767 213.902328,340.536377 
	C213.413162,342.235840 211.899139,343.640289 210.874329,345.144348 
	C210.874329,345.144348 210.878662,345.173004 210.740158,344.623291 
	C210.419800,344.452393 210.099426,344.281525 209.357834,343.950531 
	C209.102921,343.760895 208.950058,343.509247 208.736649,342.653748 
	C208.404022,342.516998 208.071396,342.380249 207.860031,342.306366 
M218.811050,383.052643 
	C220.084229,384.002960 221.357391,384.953247 222.630569,385.903564 
	C220.941589,386.826904 219.252625,387.750244 217.153183,388.898010 
	C218.074966,389.491425 220.084457,390.945190 220.183243,390.825226 
	C222.414322,388.116364 224.435867,385.234924 226.496841,382.385925 
	C226.162155,381.873047 225.827469,381.360138 225.492798,380.847260 
	C222.967606,381.542633 220.442413,382.238037 217.640976,383.090881 
	C217.781387,383.086212 217.921799,383.081543 218.811050,383.052643 
M291.918671,246.701355 
	C292.771301,247.428955 293.666168,248.825134 294.469574,248.774323 
	C299.244598,248.472382 303.998444,247.835617 309.197296,247.263107 
	C308.810333,241.748810 309.487457,237.857513 314.685303,234.127853 
	C319.954865,230.346756 324.062592,231.041855 329.096771,233.040070 
	C331.567535,227.504562 333.772156,222.565277 336.110413,217.326691 
	C330.475891,215.153275 328.373627,211.913055 327.348022,205.916016 
	C326.209930,199.261337 330.016266,196.724060 333.479309,193.058212 
	C330.052582,188.293701 326.888580,183.894531 323.357330,178.984680 
	C318.295349,184.648376 313.547485,183.015869 308.050140,180.309128 
	C304.552155,178.586823 302.413483,177.100845 301.973877,173.118423 
	C301.842560,171.929092 299.919159,169.995300 298.846008,170.014740 
	C294.102112,170.100647 289.368835,170.774185 285.621002,171.138748 
	C284.255707,175.286331 283.905212,179.091507 281.924469,181.619095 
	C279.826630,184.296097 276.178497,185.758224 272.844696,187.994308 
	C272.844696,181.171539 272.844696,175.304657 272.844696,168.744965 
	C260.768066,171.406219 263.663544,159.766251 258.900940,155.264542 
	C260.913971,152.585083 262.582977,150.363571 264.140228,148.290771 
	C260.061981,144.078857 256.286804,140.179962 252.168915,135.927139 
	C248.005585,142.224152 242.939911,141.292999 237.576355,138.098190 
	C236.735321,137.597229 235.542770,137.613434 234.809280,137.022461 
	C233.771790,136.186554 232.471252,135.124481 232.219421,133.957092 
	C230.742233,127.109558 230.834122,127.090469 223.695587,127.096878 
	C222.029953,127.098373 220.346237,127.248985 218.702469,127.058281 
	C215.271393,126.660225 213.936234,128.051926 213.873215,131.499146 
	C213.840775,133.273834 213.168198,136.260941 212.120316,136.591125 
	C206.031204,138.509811 199.653900,145.194916 194.004547,136.144104 
	C189.750626,140.313416 185.866852,144.119919 181.759048,148.146027 
	C183.477585,150.480865 185.212448,152.837891 186.672668,154.821762 
	C185.154892,158.630676 183.621353,161.954941 182.501968,165.413284 
	C180.892090,170.386963 176.090530,167.538010 173.017029,169.628784 
	C173.017029,174.876434 173.017029,180.305222 173.017029,186.666916 
	C182.217422,183.969040 182.847900,191.256836 185.193359,196.688248 
	C185.718597,197.904526 186.297714,199.097519 186.870911,200.342209 
	C185.121094,202.627151 183.421036,204.847137 181.712845,207.077759 
	C185.769272,211.209396 189.582794,215.093613 193.674316,219.261002 
	C197.547409,214.753830 201.193542,214.183716 207.081009,216.470978 
	C213.191727,218.844986 214.433899,222.468018 214.368973,227.767654 
	C220.372421,227.767654 225.790314,227.767654 231.760101,227.767654 
	C231.093613,221.687759 233.729111,218.974030 239.216705,216.333435 
	C245.270203,213.420532 248.641556,215.553680 252.379501,219.161545 
	C256.465729,215.373672 260.146637,211.961517 263.682770,208.683594 
	C268.450623,215.908493 266.824188,221.306992 260.112152,225.330734 
	C263.721771,230.229446 266.925507,234.577362 270.084442,238.864426 
	C274.607269,236.725937 277.910004,233.211044 282.940643,236.874908 
	C286.490326,239.460159 292.102844,239.593918 291.918671,246.701355 
M226.829086,284.270966 
	C235.202728,279.665985 243.576370,275.061005 251.776154,270.551666 
	C247.677200,265.157257 243.485214,260.567383 240.403961,255.324677 
	C237.323563,250.083374 235.474548,244.130341 232.790451,238.633499 
	C232.287766,237.604050 230.423370,236.757751 229.134338,236.677368 
	C223.520416,236.327240 217.769455,236.971542 212.280731,236.023987 
	C187.836060,231.803864 169.319382,213.076767 164.603439,188.403595 
	C160.025543,164.452560 170.616608,140.407654 191.433319,127.430519 
	C192.278748,126.903481 192.988358,126.158592 194.267593,125.093697 
	C192.824265,125.093697 192.100693,124.903641 191.533188,125.121025 
	C165.869461,134.951721 149.420151,153.111267 145.393143,180.376312 
	C143.749771,191.502838 140.837631,201.592209 135.678894,211.311020 
	C134.355850,213.803558 133.055374,216.323700 131.978989,218.928070 
	C130.068130,223.551544 131.307556,228.519318 135.906738,229.695618 
	C146.377045,232.373489 148.638168,239.068893 147.080841,248.509048 
	C146.813385,250.130341 147.038788,251.833618 147.043274,253.498993 
	C147.077255,266.094269 153.115036,272.135590 165.714371,272.163361 
	C171.970230,272.177124 178.226166,272.165710 184.764389,272.165710 
	C184.764389,280.416046 184.738129,287.889282 184.771378,295.362213 
	C184.808777,303.763428 187.903229,305.709259 195.193604,301.759583 
	C205.572098,296.136841 215.873154,290.371216 226.829086,284.270966 
M334.905548,242.367020 
	C323.395416,254.724167 309.169403,260.488831 292.377625,259.056244 
	C273.286163,257.427460 259.668701,247.257935 250.800827,230.490952 
	C247.085556,232.005356 243.791153,233.348206 240.318283,234.763794 
	C243.569366,246.646637 249.292053,256.622589 258.314514,264.453278 
	C260.991760,266.776855 262.294556,269.002289 261.890594,272.503357 
	C261.284393,277.757233 263.765625,281.289520 268.344452,283.793182 
	C284.395966,292.570099 300.361206,301.504608 316.390198,310.322906 
	C321.541290,313.156769 324.678528,311.311310 324.807709,305.380432 
	C324.922485,300.110382 324.831848,294.835846 324.831848,289.152802 
	C331.219543,289.152802 337.013245,289.240112 342.803314,289.132538 
	C351.670380,288.967834 356.917114,283.647858 357.088074,274.704926 
	C357.180389,269.877686 356.934967,265.036194 357.232513,260.225311 
	C357.322815,258.765381 358.410889,256.505646 359.562958,256.102997 
	C375.321381,250.595505 371.976074,245.612198 366.202118,234.963882 
	C362.132782,227.459244 359.799805,219.658112 358.812225,211.011200 
	C356.827637,193.634735 347.936707,179.874802 333.557495,169.812454 
	C332.135162,168.817108 330.370117,168.311508 328.764130,167.578598 
	C351.190918,187.154587 353.832214,219.630295 334.905548,242.367020 
M98.216721,330.973633 
	C90.603745,330.973633 82.990761,330.973633 75.285027,330.973633 
	C75.285027,333.519318 75.285027,335.553131 75.285027,337.720551 
	C78.246017,337.923279 80.828690,338.100098 84.014175,338.318176 
	C84.014175,347.713806 84.014175,356.767578 84.014175,365.680817 
	C86.732635,365.680817 88.804337,365.680817 91.309166,365.680817 
	C91.309166,356.385803 91.309166,347.458466 91.309166,338.308167 
	C94.442902,338.056122 97.160004,337.837616 100.531242,337.566467 
	C99.997421,335.076385 99.572174,333.092804 98.216721,330.973633 
M261.506683,389.382477 
	C258.916656,385.098450 255.130920,382.368866 250.387024,381.208374 
	C249.586853,381.682587 248.585846,382.275787 247.020309,383.203552 
	C248.373993,384.915222 249.743073,387.885559 252.059631,389.266541 
	C255.058105,391.054108 258.812469,391.573730 262.780945,392.806885 
	C262.594971,391.920959 262.341492,390.713440 261.506683,389.382477 
M247.923996,389.367615 
	C247.850830,388.715363 247.777679,388.063141 247.704514,387.410889 
	C247.274399,387.476624 246.844284,387.542358 246.414169,387.608093 
	C246.730499,388.242279 247.046814,388.876434 247.923996,389.367615 
z"/>
<path fill="#0A96AE" opacity="1.000000" stroke="none" 
	d="
M291.852844,246.292313 
	C292.102844,239.593918 286.490326,239.460159 282.940643,236.874908 
	C277.910004,233.211044 274.607269,236.725937 270.084442,238.864426 
	C266.925507,234.577362 263.721771,230.229446 260.112152,225.330734 
	C266.824188,221.306992 268.450623,215.908493 263.682770,208.683594 
	C260.146637,211.961517 256.465729,215.373672 252.379501,219.161545 
	C248.641556,215.553680 245.270203,213.420532 239.216705,216.333435 
	C233.729111,218.974030 231.093613,221.687759 231.760101,227.767654 
	C225.790314,227.767654 220.372421,227.767654 214.368973,227.767654 
	C214.433899,222.468018 213.191727,218.844986 207.081009,216.470978 
	C201.193542,214.183716 197.547409,214.753830 193.674316,219.261002 
	C189.582794,215.093613 185.769272,211.209396 181.712845,207.077759 
	C183.421036,204.847137 185.121094,202.627151 186.870911,200.342209 
	C186.297714,199.097519 185.718597,197.904526 185.193359,196.688248 
	C182.847900,191.256836 182.217422,183.969040 173.017029,186.666916 
	C173.017029,180.305222 173.017029,174.876434 173.017029,169.628784 
	C176.090530,167.538010 180.892090,170.386963 182.501968,165.413284 
	C183.621353,161.954941 185.154892,158.630676 186.672668,154.821762 
	C185.212448,152.837891 183.477585,150.480865 181.759048,148.146027 
	C185.866852,144.119919 189.750626,140.313416 194.004547,136.144104 
	C199.653900,145.194916 206.031204,138.509811 212.120316,136.591125 
	C213.168198,136.260941 213.840775,133.273834 213.873215,131.499146 
	C213.936234,128.051926 215.271393,126.660225 218.702469,127.058281 
	C220.346237,127.248985 222.029953,127.098373 223.695587,127.096878 
	C230.834122,127.090469 230.742233,127.109558 232.219421,133.957092 
	C232.471252,135.124481 233.771790,136.186554 234.809280,137.022461 
	C235.542770,137.613434 236.735321,137.597229 237.576355,138.098190 
	C242.939911,141.292999 248.005585,142.224152 252.168915,135.927139 
	C256.286804,140.179962 260.061981,144.078857 264.140228,148.290771 
	C262.582977,150.363571 260.913971,152.585083 258.900940,155.264542 
	C263.663544,159.766251 260.768066,171.406219 272.844696,168.744965 
	C272.844696,175.304657 272.844696,181.171539 272.844696,187.994308 
	C276.178497,185.758224 279.826630,184.296097 281.924469,181.619095 
	C283.905212,179.091507 284.255707,175.286331 285.621002,171.138748 
	C289.368835,170.774185 294.102112,170.100647 298.846008,170.014740 
	C299.919159,169.995300 301.842560,171.929092 301.973877,173.118423 
	C302.413483,177.100845 304.552155,178.586823 308.050140,180.309128 
	C313.547485,183.015869 318.295349,184.648376 323.357330,178.984680 
	C326.888580,183.894531 330.052582,188.293701 333.479309,193.058212 
	C330.016266,196.724060 326.209930,199.261337 327.348022,205.916016 
	C328.373627,211.913055 330.475891,215.153275 336.110413,217.326691 
	C333.772156,222.565277 331.567535,227.504562 329.096771,233.040070 
	C324.062592,231.041855 319.954865,230.346756 314.685303,234.127853 
	C309.487457,237.857513 308.810333,241.748810 309.197296,247.263107 
	C303.998444,247.835617 299.244598,248.472382 294.469574,248.774323 
	C293.666168,248.825134 292.771301,247.428955 291.852844,246.292313 
M244.050507,164.164612 
	C243.090271,163.044815 242.130051,161.925003 241.060654,160.092758 
	C239.797134,158.459579 238.875275,156.057770 237.214035,155.319397 
	C227.281158,150.904388 217.119141,149.912079 207.712677,156.386215 
	C205.066055,158.207779 203.761642,161.979477 201.171204,165.078476 
	C195.238129,170.883820 195.858749,184.969604 202.932693,194.494766 
	C209.762695,203.691483 225.354080,205.104843 234.265793,201.129349 
	C237.877991,199.517944 241.788300,198.083923 242.902252,193.053497 
	C243.750931,192.623077 245.169266,192.362961 245.357025,191.734970 
	C246.705444,187.224442 248.426163,182.688187 248.790421,178.062592 
	C249.096802,174.171829 249.731369,169.471710 245.033096,166.294037 
	C244.723663,165.835999 244.414215,165.377960 244.050507,164.164612 
M311.036316,211.974014 
	C311.095520,210.978790 311.226868,209.981766 311.202332,208.988617 
	C311.039978,202.418716 306.605377,196.863876 300.258911,195.231384 
	C293.910431,193.598358 287.210144,196.505249 284.138824,202.225098 
	C280.975983,208.115265 282.169067,214.772018 286.779114,219.587311 
	C293.667175,226.781937 307.783173,224.512894 311.036316,211.974014 
z"/>
<path fill="#424352" opacity="1.000000" stroke="none" 
	d="
M226.518188,284.468811 
	C215.873154,290.371216 205.572098,296.136841 195.193604,301.759583 
	C187.903229,305.709259 184.808777,303.763428 184.771378,295.362213 
	C184.738129,287.889282 184.764389,280.416046 184.764389,272.165710 
	C178.226166,272.165710 171.970230,272.177124 165.714371,272.163361 
	C153.115036,272.135590 147.077255,266.094269 147.043274,253.498993 
	C147.038788,251.833618 146.813385,250.130341 147.080841,248.509048 
	C148.638168,239.068893 146.377045,232.373489 135.906738,229.695618 
	C131.307556,228.519318 130.068130,223.551544 131.978989,218.928070 
	C133.055374,216.323700 134.355850,213.803558 135.678894,211.311020 
	C140.837631,201.592209 143.749771,191.502838 145.393143,180.376312 
	C149.420151,153.111267 165.869461,134.951721 191.533188,125.121025 
	C192.100693,124.903641 192.824265,125.093697 194.267593,125.093697 
	C192.988358,126.158592 192.278748,126.903481 191.433319,127.430519 
	C170.616608,140.407654 160.025543,164.452560 164.603439,188.403595 
	C169.319382,213.076767 187.836060,231.803864 212.280731,236.023987 
	C217.769455,236.971542 223.520416,236.327240 229.134338,236.677368 
	C230.423370,236.757751 232.287766,237.604050 232.790451,238.633499 
	C235.474548,244.130341 237.323563,250.083374 240.403961,255.324677 
	C243.485214,260.567383 247.677200,265.157257 251.776154,270.551666 
	C243.576370,275.061005 235.202728,279.665985 226.518188,284.468811 
z"/>
<path fill="#424452" opacity="1.000000" stroke="none" 
	d="
M335.157837,242.111969 
	C353.832214,219.630295 351.190918,187.154587 328.764130,167.578598 
	C330.370117,168.311508 332.135162,168.817108 333.557495,169.812454 
	C347.936707,179.874802 356.827637,193.634735 358.812225,211.011200 
	C359.799805,219.658112 362.132782,227.459244 366.202118,234.963882 
	C371.976074,245.612198 375.321381,250.595505 359.562958,256.102997 
	C358.410889,256.505646 357.322815,258.765381 357.232513,260.225311 
	C356.934967,265.036194 357.180389,269.877686 357.088074,274.704926 
	C356.917114,283.647858 351.670380,288.967834 342.803314,289.132538 
	C337.013245,289.240112 331.219543,289.152802 324.831848,289.152802 
	C324.831848,294.835846 324.922485,300.110382 324.807709,305.380432 
	C324.678528,311.311310 321.541290,313.156769 316.390198,310.322906 
	C300.361206,301.504608 284.395966,292.570099 268.344452,283.793182 
	C263.765625,281.289520 261.284393,277.757233 261.890594,272.503357 
	C262.294556,269.002289 260.991760,266.776855 258.314514,264.453278 
	C249.292053,256.622589 243.569366,246.646637 240.318283,234.763794 
	C243.791153,233.348206 247.085556,232.005356 250.800827,230.490952 
	C259.668701,247.257935 273.286163,257.427460 292.377625,259.056244 
	C309.169403,260.488831 323.395416,254.724167 335.157837,242.111969 
z"/>
<path fill="#1592A7" opacity="1.000000" stroke="none" 
	d="
M254.187347,364.981018 
	C253.957748,365.293488 253.728165,365.605988 252.819656,365.941956 
	C250.472900,365.982361 248.805038,365.999237 247.137192,366.016144 
	C247.137192,366.016144 247.050064,365.896515 246.965210,365.435211 
	C246.880341,358.109161 246.880341,351.244415 246.880341,344.379639 
	C244.080093,346.260956 242.533371,348.380188 241.023300,350.525238 
	C237.105835,356.089996 233.486649,356.094055 229.362564,350.535431 
	C227.824539,348.462402 226.256577,346.411591 224.301041,343.818695 
	C224.023727,345.398560 223.883026,346.200104 223.499374,347.331909 
	C223.166290,351.436615 223.031570,355.210663 222.995789,358.985657 
	C222.932327,365.678192 222.175156,366.147308 216.370026,362.444092 
	C216.319351,352.367767 216.358505,342.744263 216.753860,333.015808 
	C219.362396,332.638245 221.614731,332.365601 223.917465,332.083313 
	C223.967865,332.073639 223.901428,332.151886 223.949921,332.447266 
	C224.419327,333.122406 224.840256,333.502228 225.508240,334.096375 
	C227.803101,336.911469 229.850906,339.512238 231.898727,342.112976 
	C231.898727,342.112976 231.978256,341.993378 231.985992,342.367523 
	C232.993149,344.017914 233.992569,345.294159 235.311951,346.978973 
	C238.356369,342.852417 241.373932,339.314941 243.749435,335.389008 
	C246.190506,331.354706 249.207321,330.043091 254.187347,331.724701 
	C254.187347,342.763306 254.187347,353.872162 254.187347,364.981018 
z"/>
<path fill="#1691A5" opacity="1.000000" stroke="none" 
	d="
M419.069397,331.062897 
	C421.085968,331.037445 423.102509,331.011993 425.612122,331.477112 
	C426.109344,339.125946 426.239594,346.286926 426.081696,353.441589 
	C425.929047,360.356293 420.956818,365.587433 414.018372,366.521698 
	C407.865173,367.350250 400.354797,363.122833 399.642853,356.822357 
	C398.689575,348.386200 399.406921,339.761230 399.406921,331.314819 
	C401.763672,331.314819 403.700134,331.314819 406.133301,331.314819 
	C406.133301,337.880707 406.077118,344.166595 406.150513,350.450958 
	C406.212769,355.777039 408.676392,358.998016 412.505371,359.014435 
	C416.389709,359.031097 418.844757,355.868195 418.926788,350.539490 
	C419.026672,344.048096 419.026367,337.555176 419.069397,331.062897 
z"/>
<path fill="#DDFBFC" opacity="1.000000" stroke="none" 
	d="
M418.664124,331.118652 
	C419.026367,337.555176 419.026672,344.048096 418.926788,350.539490 
	C418.844757,355.868195 416.389709,359.031097 412.505371,359.014435 
	C408.676392,358.998016 406.212769,355.777039 406.150513,350.450958 
	C406.077118,344.166595 406.133301,337.880707 406.133301,331.314819 
	C403.700134,331.314819 401.763672,331.314819 399.406921,331.314819 
	C399.406921,339.761230 398.689575,348.386200 399.642853,356.822357 
	C400.354797,363.122833 407.865173,367.350250 414.018372,366.521698 
	C420.956818,365.587433 425.929047,360.356293 426.081696,353.441589 
	C426.239594,346.286926 426.109344,339.125946 426.044922,331.506653 
	C426.911133,332.106262 428.629211,333.164459 428.632599,334.228088 
	C428.651245,340.167847 427.422028,346.217804 428.180664,352.026123 
	C429.594879,362.853424 417.732422,372.976990 407.473358,367.356567 
	C404.622345,365.794647 401.545288,364.645355 398.362854,363.212616 
	C397.956665,364.423096 397.300690,366.377899 396.417114,369.010986 
	C394.401062,365.653137 390.511993,371.392029 389.525696,366.236755 
	C391.892181,365.917969 393.791046,365.917969 395.989410,365.917969 
	C395.989410,361.063385 396.743347,356.614624 395.761383,352.589355 
	C394.908020,349.091217 392.091522,346.071960 389.906860,342.551208 
	C386.981567,342.027435 384.291992,341.793579 381.300720,341.580994 
	C380.341583,341.998779 379.684082,342.395264 378.769928,342.744324 
	C378.290527,342.431122 378.067810,342.165405 377.923279,341.452393 
	C377.945679,337.372131 377.889893,333.739136 377.834106,330.106140 
	C378.991516,332.752655 380.148926,335.399170 381.622864,338.769440 
	C383.305969,338.933655 386.184235,338.835388 388.824921,339.579834 
	C391.411377,340.308960 393.755859,341.896271 397.065430,343.531189 
	C396.748383,341.203674 396.057526,339.040985 396.273712,336.973114 
	C396.536377,334.460968 396.890381,330.599823 398.411591,329.882935 
	C400.960083,328.681854 404.687958,328.853210 407.455566,329.801300 
	C408.567719,330.182281 408.826599,334.142151 408.818146,336.470764 
	C408.802582,340.759460 407.802948,345.093628 408.202332,349.315247 
	C408.420685,351.623596 410.524078,355.478577 412.021088,355.598663 
	C415.662048,355.890869 417.105164,352.756714 417.027985,349.114960 
	C416.932739,344.622559 416.897736,340.123047 417.056549,335.634399 
	C417.109589,334.135437 417.838745,332.660370 418.664124,331.118652 
z"/>
<path fill="#1E93A6" opacity="1.000000" stroke="none" 
	d="
M305.894012,343.241058 
	C305.985016,343.525299 306.154114,343.751038 306.729156,344.347351 
	C310.545532,348.215637 311.012299,352.357758 309.871277,356.873901 
	C309.871277,356.873901 310.000275,356.999451 309.577026,356.950989 
	C308.435425,356.986572 307.717072,357.070587 306.540619,357.085480 
	C301.980011,357.016357 297.877472,357.016357 293.774902,357.016357 
	C293.695221,357.495636 293.615509,357.974945 293.535828,358.454224 
	C295.219757,359.265167 296.850311,360.585571 298.599976,360.768890 
	C301.299103,361.051697 304.079773,360.555878 306.873047,360.740845 
	C306.743225,362.416870 306.977295,364.622375 306.323700,364.927765 
	C301.407562,367.224365 296.383118,367.283234 291.641510,364.297760 
	C287.341827,361.590546 285.292877,357.722076 285.798279,352.543945 
	C286.757477,342.716339 295.554657,338.621521 305.894012,343.241058 
M294.268250,348.740479 
	C293.883545,349.579895 293.498840,350.419312 292.997681,351.512878 
	C296.768036,351.512878 300.089233,351.512878 303.837830,351.512878 
	C301.637238,346.831696 298.805664,345.790802 294.268250,348.740479 
z"/>
<path fill="#1C92A6" opacity="1.000000" stroke="none" 
	d="
M127.696381,356.815247 
	C127.696381,356.815247 127.314125,356.883331 126.684120,356.924591 
	C121.031067,356.965851 116.008011,356.965851 110.365746,356.965851 
	C114.098839,361.072357 115.507683,361.807861 120.520935,360.584229 
	C124.234306,359.677887 124.849098,361.237854 124.958496,364.095123 
	C116.624825,368.366241 111.125183,367.183838 104.121048,359.773102 
	C104.121048,359.773102 104.030640,359.374176 103.912682,358.803650 
	C101.580948,350.041840 105.426193,342.813507 112.876160,341.161743 
	C119.643074,339.661407 126.413452,344.493164 127.669052,351.856262 
	C127.943222,353.464050 127.700859,355.159943 127.696381,356.815247 
M119.984322,349.508972 
	C115.519478,345.352112 112.161140,346.121765 110.528969,351.929657 
	C112.733879,351.929657 114.892014,352.137024 116.982338,351.850250 
	C118.195465,351.683807 119.299652,350.723358 119.984322,349.508972 
z"/>
<path fill="#DDFBFC" opacity="1.000000" stroke="none" 
	d="
M363.663025,342.177521 
	C368.058441,341.757843 370.883606,340.509583 369.196014,334.989685 
	C368.475922,332.634308 367.853149,328.915466 371.607117,327.903503 
	C373.150635,327.487396 375.126404,328.674438 376.514404,329.536987 
	C374.528687,330.031769 372.934143,330.121857 371.261993,330.216309 
	C371.261993,342.331940 371.261993,354.049011 371.261993,365.814819 
	C373.057343,365.965607 374.540833,366.090179 376.024323,366.214783 
	C374.394043,366.648682 372.334076,367.923370 371.217224,367.352570 
	C368.321045,365.872498 366.076050,366.519531 363.331543,367.655396 
	C355.977783,370.698944 349.221008,368.509613 346.582886,362.137634 
	C355.219910,368.227020 360.587524,368.344147 366.669159,362.049469 
	C365.069031,359.051727 363.390564,357.946960 359.678864,359.767883 
	C358.068756,360.557800 353.778290,359.247864 353.090668,357.776703 
	C352.023560,355.493835 352.240479,351.884583 353.384247,349.562256 
	C354.089417,348.130524 358.191833,346.822601 359.609467,347.592987 
	C363.293060,349.594635 364.958130,347.969971 367.045227,345.382202 
	C365.796265,344.198822 364.729645,343.188171 363.663025,342.177521 
z"/>
<path fill="#1890A5" opacity="1.000000" stroke="none" 
	d="
M98.681824,331.041443 
	C99.572174,333.092804 99.997421,335.076385 100.531242,337.566467 
	C97.160004,337.837616 94.442902,338.056122 91.309166,338.308167 
	C91.309166,347.458466 91.309166,356.385803 91.309166,365.680817 
	C88.804337,365.680817 86.732635,365.680817 84.014175,365.680817 
	C84.014175,356.767578 84.014175,347.713806 84.014175,338.318176 
	C80.828690,338.100098 78.246017,337.923279 75.285027,337.720551 
	C75.285027,335.553131 75.285027,333.519318 75.285027,330.973633 
	C82.990761,330.973633 90.603745,330.973633 98.681824,331.041443 
z"/>
<path fill="#2794A7" opacity="1.000000" stroke="none" 
	d="
M363.475067,342.126038 
	C364.729645,343.188171 365.796265,344.198822 367.045227,345.382202 
	C364.958130,347.969971 363.293060,349.594635 359.609467,347.592987 
	C358.191833,346.822601 354.089417,348.130524 353.384247,349.562256 
	C352.240479,351.884583 352.023560,355.493835 353.090668,357.776703 
	C353.778290,359.247864 358.068756,360.557800 359.678864,359.767883 
	C363.390564,357.946960 365.069031,359.051727 366.669159,362.049469 
	C360.587524,368.344147 355.219910,368.227020 346.632019,361.769714 
	C346.280853,361.761261 346.271667,361.806580 346.227081,361.411133 
	C344.162689,357.375122 342.684052,353.583771 344.931305,349.581146 
	C346.413086,346.941864 348.344421,344.555023 350.074463,342.055145 
	C350.074463,342.055145 350.000061,342.011749 350.329956,342.053162 
	C351.147858,341.852203 351.635895,341.609833 352.123962,341.367432 
	C352.549896,341.310516 352.975800,341.253571 354.134888,341.106079 
	C357.186676,341.085724 359.505249,341.155853 361.823853,341.226013 
	C361.823853,341.225983 361.959076,341.152588 361.999084,341.385254 
	C362.361603,341.679932 362.684143,341.741913 363.006683,341.803894 
	C363.006683,341.803894 363.287109,342.074554 363.475067,342.126038 
z"/>
<path fill="#D0F7FA" opacity="1.000000" stroke="none" 
	d="
M182.992264,365.997559 
	C176.713699,370.696442 168.644760,369.272949 162.156296,362.104126 
	C160.992569,363.388184 159.849930,364.649017 158.409027,365.473267 
	C158.135605,357.344727 158.160431,349.652740 158.185272,341.960785 
	C159.448410,343.056396 160.711548,344.152039 161.173676,344.552887 
	C165.185486,342.674988 168.963242,339.836884 173.042191,339.303955 
	C176.970490,338.790680 181.210068,340.659851 185.862946,341.592590 
	C185.790619,340.362549 185.373520,338.160004 185.619217,336.034058 
	C185.852036,334.019684 186.779724,332.085571 187.787506,330.570557 
	C188.183807,342.631836 188.194427,354.238770 188.205032,365.845673 
	C188.008179,365.878357 187.811310,365.911011 187.302551,365.546173 
	C186.839905,360.420502 186.261917,355.652557 186.697021,350.978912 
	C186.962494,348.127319 186.419037,346.944763 183.796906,346.282501 
	C180.713272,341.092804 175.078552,339.544983 169.677643,342.052246 
	C163.861496,344.752258 160.848495,351.063416 162.460617,356.869476 
	C164.419952,363.926086 172.732758,370.098083 182.943771,364.153931 
	C182.984497,365.013336 182.988373,365.505432 182.992264,365.997559 
z"/>
<path fill="#D3FBFD" opacity="1.000000" stroke="none" 
	d="
M254.566269,364.885071 
	C254.187347,353.872162 254.187347,342.763306 254.187347,331.724701 
	C249.207321,330.043091 246.190506,331.354706 243.749435,335.389008 
	C241.373932,339.314941 238.356369,342.852417 235.311951,346.978973 
	C233.992569,345.294159 232.993149,344.017914 231.934814,342.418335 
	C237.395370,344.174683 238.739365,339.078125 240.573044,336.275970 
	C243.825760,331.305328 247.144409,328.519379 253.659119,329.107269 
	C261.618225,329.825500 269.703278,329.111755 277.733765,329.120148 
	C278.767609,329.121216 279.800781,329.738220 280.469910,330.489502 
	C272.596649,330.909119 265.087738,330.909119 257.638977,330.909119 
	C257.638977,333.654083 257.638977,335.660431 257.638977,338.020142 
	C260.709045,338.020142 263.331818,338.020142 266.036926,338.342529 
	C266.238098,339.091919 266.356934,339.518890 266.340302,340.398987 
	C266.118378,348.569305 266.031982,356.286469 265.945557,364.003662 
	C265.337097,362.436981 264.256104,360.885895 264.203674,359.300812 
	C263.999084,353.117371 264.120178,346.923187 264.120178,340.887360 
	C256.827087,339.137909 254.553406,341.945953 255.490997,348.515717 
	C256.246033,353.806488 255.194946,359.354980 254.566269,364.885071 
z"/>
<path fill="#DDFBFC" opacity="1.000000" stroke="none" 
	d="
M349.697449,342.036835 
	C348.344421,344.555023 346.413086,346.941864 344.931305,349.581146 
	C342.684052,353.583771 344.162689,357.375122 346.221802,361.393677 
	C344.688904,363.583740 343.116699,365.395782 340.855133,368.002350 
	C336.222473,368.002350 330.136658,368.239014 324.078674,367.930176 
	C318.891785,367.665771 315.100708,364.991241 313.081543,359.976105 
	C312.620880,358.831909 311.476044,357.963135 310.258667,356.920746 
	C311.012299,352.357758 310.545532,348.215637 306.922058,344.441803 
	C308.187531,345.092834 309.584503,346.083557 310.989624,347.062531 
	C312.067932,347.813843 313.156555,348.550354 314.598328,349.536804 
	C312.110870,356.571320 316.297516,360.707001 320.921082,364.949036 
	C325.391174,366.963409 329.477539,367.378601 333.712891,364.390869 
	C336.151428,365.098755 338.234741,365.791595 340.982208,366.705322 
	C340.982208,358.687134 341.081604,351.902161 340.891846,345.125244 
	C340.857117,343.884766 339.645844,342.677246 338.701050,341.298096 
	C337.582672,341.022980 336.740875,340.904266 335.899078,340.785553 
	C339.722260,337.597565 342.095276,338.699310 343.589233,344.356140 
	C345.499695,343.577057 347.410065,342.797791 349.697449,342.036835 
z"/>
<path fill="#3B98A6" opacity="1.000000" stroke="none" 
	d="
M265.954590,338.020142 
	C263.331818,338.020142 260.709045,338.020142 257.638977,338.020142 
	C257.638977,335.660431 257.638977,333.654083 257.638977,330.909119 
	C265.087738,330.909119 272.596649,330.909119 280.572998,330.841309 
	C281.889832,332.780487 282.739197,334.787445 283.459747,336.489929 
	C282.339813,337.381134 282.103027,337.731659 281.827942,337.764893 
	C273.990875,338.711853 273.993256,338.706665 273.999939,346.892670 
	C274.004974,353.023743 274.000946,359.154816 274.000946,365.470276 
	C271.089783,365.151276 268.621796,364.880859 266.049683,364.307037 
	C266.031982,356.286469 266.118378,348.569305 266.684631,340.555725 
	C267.431396,341.677795 267.894592,343.091553 267.928711,344.515625 
	C268.032288,348.841217 267.808289,353.180267 268.060486,357.493683 
	C268.148315,358.995819 269.253387,360.438507 269.893860,361.908325 
	C270.606842,360.513641 271.816895,359.159668 271.935089,357.716248 
	C272.233032,354.078217 272.044708,350.399872 272.040649,346.737701 
	C272.030609,337.669617 272.028259,337.669617 279.989868,334.397308 
	C278.770355,333.256104 277.235718,331.949219 275.871063,332.107574 
	C271.259430,332.642761 265.864441,330.034668 261.288666,335.004242 
	C262.900879,335.667725 263.717560,335.861298 264.357788,336.307831 
	C264.983673,336.744324 265.429657,337.438873 265.954590,338.020142 
z"/>
<path fill="#F6FEFE" opacity="1.000000" stroke="none" 
	d="
M183.742310,346.619263 
	C186.419037,346.944763 186.962494,348.127319 186.697021,350.978912 
	C186.261917,355.652557 186.839905,360.420502 187.004150,365.569519 
	C185.944168,365.993317 184.870682,365.996246 183.394745,365.998352 
	C182.988373,365.505432 182.984497,365.013336 183.094513,363.882629 
	C181.968231,361.583405 180.728027,359.922760 179.035004,358.185303 
	C177.753464,358.081024 176.711441,358.364014 176.135590,357.968445 
	C174.330399,356.728271 172.700851,355.232483 171.003235,353.835693 
	C172.708862,352.226257 174.312851,350.481659 176.175613,349.081238 
	C176.821762,348.595459 178.109344,348.962799 179.393219,348.949829 
	C180.068222,348.947205 180.453934,348.935211 181.097961,348.868164 
	C181.571304,348.544830 181.786316,348.276550 182.000671,348.003662 
	C182.000000,347.999115 182.008957,348.003418 182.322876,347.989868 
	C183.009949,347.548248 183.383118,347.120239 183.761627,346.672546 
	C183.766983,346.652863 183.742310,346.619263 183.742310,346.619263 
z"/>
<path fill="#B9F5FA" opacity="1.000000" stroke="none" 
	d="
M223.742310,347.001678 
	C223.883026,346.200104 224.023727,345.398560 224.301041,343.818695 
	C226.256577,346.411591 227.824539,348.462402 229.362564,350.535431 
	C233.486649,356.094055 237.105835,356.089996 241.023300,350.525238 
	C242.533371,348.380188 244.080093,346.260956 246.880341,344.379639 
	C246.880341,351.244415 246.880341,358.109161 246.891388,365.430115 
	C245.962494,364.202545 244.512054,362.606934 244.202454,360.814301 
	C243.740479,358.139282 244.082581,355.325439 243.595306,351.773407 
	C238.137650,358.461548 232.600845,357.695953 226.053818,351.851501 
	C225.780472,355.172882 225.666351,357.114929 225.447220,359.045013 
	C225.273712,360.573181 224.971405,362.086670 224.348206,363.344238 
	C223.894180,357.721771 223.818253,352.361725 223.742310,347.001678 
z"/>
<path fill="#D0F7FA" opacity="1.000000" stroke="none" 
	d="
M128.092728,356.872131 
	C127.700859,355.159943 127.943222,353.464050 127.669052,351.856262 
	C126.413452,344.493164 119.643074,339.661407 112.876160,341.161743 
	C105.426193,342.813507 101.580948,350.041840 103.795784,358.635864 
	C98.319641,355.864380 100.213608,352.211823 102.460312,347.798035 
	C106.214973,340.421814 115.921509,336.283142 122.668587,340.737030 
	C125.902428,342.871765 127.735367,347.128693 130.049103,350.219238 
	C130.702545,349.412048 132.042816,347.756409 133.715607,346.387970 
	C133.960068,347.050385 133.872009,347.425598 133.530121,348.086304 
	C130.832367,356.314392 132.278336,360.542267 139.256546,365.857544 
	C135.618713,366.459015 133.399780,365.112640 132.125824,361.493378 
	C131.515701,359.759979 129.737976,358.437592 128.092728,356.872131 
z"/>
<path fill="#DDFBFC" opacity="1.000000" stroke="none" 
	d="
M306.998688,357.154602 
	C307.717072,357.070587 308.435425,356.986572 309.514771,356.885712 
	C309.590637,358.988129 308.947784,361.132996 309.097443,363.221100 
	C309.378387,367.141144 306.459167,368.815460 303.959045,368.596680 
	C298.506439,368.119476 293.055969,366.791718 287.828491,365.113983 
	C286.414154,364.660065 285.270996,361.812836 284.903870,359.891998 
	C282.198944,345.740051 284.296082,343.147003 297.291260,338.750397 
	C299.489990,338.006531 303.001801,341.143982 305.900452,342.864624 
	C295.554657,338.621521 286.757477,342.716339 285.798279,352.543945 
	C285.292877,357.722076 287.341827,361.590546 291.641510,364.297760 
	C296.383118,367.283234 301.407562,367.224365 306.323700,364.927765 
	C306.977295,364.622375 306.743225,362.416870 306.921936,360.337952 
	C306.948639,358.774567 306.973663,357.964600 306.998688,357.154602 
z"/>
<path fill="#2F929F" opacity="1.000000" stroke="none" 
	d="
M188.412476,365.900177 
	C188.194427,354.238770 188.183807,342.631836 188.163635,330.564850 
	C188.154083,330.104767 188.585831,330.030731 189.223053,329.998047 
	C191.441116,330.047302 193.021973,330.129242 195.151230,330.239563 
	C195.151230,334.666260 195.151230,338.737305 194.790680,342.812531 
	C194.119156,341.890991 193.659088,340.986023 193.527084,340.035492 
	C193.216232,337.796997 193.061874,335.536743 192.750504,332.315948 
	C189.117645,336.827606 189.157867,360.313538 192.694244,363.600464 
	C193.458206,360.089020 193.759003,356.526550 193.818909,352.959991 
	C193.853424,350.904846 192.879471,348.497009 196.260529,348.869690 
	C195.591568,354.748779 195.022720,360.244080 194.444000,365.834869 
	C192.587173,365.950653 190.787552,366.062836 188.987946,366.175049 
	C188.987946,366.175018 188.619919,365.954681 188.412476,365.900177 
z"/>
<path fill="#D3FBFD" opacity="1.000000" stroke="none" 
	d="
M216.397644,333.120789 
	C216.358505,342.744263 216.319351,352.367767 216.238525,362.838623 
	C217.045242,368.379608 220.911575,364.967804 223.036621,366.232666 
	C222.352280,366.802063 221.686249,367.836212 220.980545,367.864075 
	C216.940552,368.023407 212.891113,367.943604 208.419861,367.565948 
	C207.994324,366.468689 207.993820,365.750519 208.378296,365.038757 
	C211.495926,366.368439 213.388718,365.851898 213.058014,362.487579 
	C212.489197,356.700775 211.599655,350.945557 210.844757,345.177063 
	C211.899139,343.640289 213.413162,342.235840 213.902328,340.536377 
	C214.674179,337.854767 214.757843,334.975128 215.620972,332.372650 
	C216.205307,332.750916 216.301468,332.935852 216.397644,333.120789 
z"/>
<path fill="#328F9C" opacity="1.000000" stroke="none" 
	d="
M376.336243,366.127563 
	C374.540833,366.090179 373.057343,365.965607 371.261993,365.814819 
	C371.261993,354.049011 371.261993,342.331940 371.261993,330.216309 
	C372.934143,330.121857 374.528687,330.031769 376.565704,329.895111 
	C377.008179,329.848541 377.405975,330.025177 377.620056,330.065674 
	C377.889893,333.739136 377.945679,337.372131 377.615936,341.291382 
	C376.839264,338.909637 376.448090,336.241669 376.035065,333.424622 
	C371.239410,336.160583 370.355103,359.992889 375.569458,364.397217 
	C375.742249,360.780273 375.596252,357.902863 376.106293,355.146881 
	C376.474915,353.155151 377.715179,351.324707 378.489929,349.857941 
	C378.245850,355.448486 378.078583,360.603424 377.911346,365.758362 
	C377.490295,365.852356 377.069214,365.946350 376.336243,366.127563 
z"/>
<path fill="#D0F7FA" opacity="1.000000" stroke="none" 
	d="
M104.077751,360.157471 
	C111.125183,367.183838 116.624825,368.366241 124.958496,364.095123 
	C124.849098,361.237854 124.234306,359.677887 120.520935,360.584229 
	C115.507683,361.807861 114.098839,361.072357 110.365746,356.965851 
	C116.008011,356.965851 121.031067,356.965851 126.515808,357.021332 
	C126.769295,357.528717 126.423782,357.966522 126.375740,358.434875 
	C126.116371,360.963287 126.854912,364.885620 125.539581,365.762390 
	C122.130615,368.034821 118.133446,370.205872 113.466614,368.037781 
	C109.666046,366.272156 104.817497,366.033447 104.077751,360.157471 
z"/>
<path fill="#D0F7FA" opacity="1.000000" stroke="none" 
	d="
M207.993317,365.032318 
	C207.993820,365.750519 207.994324,366.468689 207.992157,367.543091 
	C205.034653,366.665588 203.935333,364.850952 204.571136,361.361908 
	C205.108337,358.413910 204.590240,355.142944 203.879181,352.172913 
	C203.646957,351.202942 201.308853,350.150513 199.989746,350.218658 
	C198.988815,350.270325 197.423843,351.939301 197.253830,353.061890 
	C196.835648,355.822968 196.869308,358.700836 197.096451,361.501312 
	C197.582626,367.495575 195.056900,369.284668 189.079773,366.539886 
	C190.787552,366.062836 192.587173,365.950653 194.444000,365.834869 
	C195.022720,360.244080 195.591568,354.748779 196.253708,348.849579 
	C196.347000,348.445679 196.370499,348.412598 196.652512,348.360809 
	C197.337021,347.915436 197.739517,347.521881 198.077194,347.111389 
	C198.012375,347.094513 198.117737,347.177277 198.508057,347.169617 
	C200.877975,347.527191 202.857544,347.892456 204.827942,348.204407 
	C204.818771,348.151062 204.740219,348.225494 204.802795,348.542908 
	C205.494736,349.969299 206.124084,351.078339 206.746170,352.198944 
	C206.738892,352.210541 206.705780,352.213989 206.700806,352.658813 
	C207.128326,357.079865 207.560822,361.056091 207.993317,365.032318 
z"/>
<path fill="#DDFBFC" opacity="1.000000" stroke="none" 
	d="
M378.122070,366.043518 
	C378.078583,360.603424 378.245850,355.448486 378.475586,349.849670 
	C378.538055,349.405823 378.565277,349.396729 378.859863,349.240967 
	C381.078522,348.358002 383.002594,347.630768 385.208374,347.077759 
	C386.674652,348.515411 387.859192,349.778839 389.022583,351.281250 
	C389.001404,351.520172 389.191620,351.960663 389.180359,352.363892 
	C389.294373,353.830719 389.419647,354.894287 389.417542,356.332184 
	C389.369263,357.482880 389.448334,358.259216 389.425598,359.420593 
	C389.366058,360.858582 389.408295,361.911499 389.338928,363.301941 
	C389.110291,364.097321 388.993256,364.555206 388.876251,365.013123 
	C388.458771,362.571198 388.171204,360.097595 387.585571,357.696716 
	C387.051514,355.507324 386.510590,353.195679 385.333557,351.344299 
	C384.817261,350.532227 382.712585,350.730042 381.329132,350.469299 
	C381.161591,351.633606 380.941803,352.793182 380.836060,353.963074 
	C380.482239,357.876862 380.196411,361.797180 379.778656,365.703705 
	C379.751160,365.960632 378.835358,366.122528 378.122070,366.043518 
z"/>
<path fill="#F0F0F0" opacity="1.000000" stroke="none" 
	d="
M261.797363,389.444214 
	C262.341492,390.713440 262.594971,391.920959 262.780945,392.806885 
	C258.812469,391.573730 255.058105,391.054108 252.059631,389.266541 
	C249.743073,387.885559 248.373993,384.915222 247.020309,383.203552 
	C248.585846,382.275787 249.586853,381.682587 250.387024,381.208374 
	C255.130920,382.368866 258.916656,385.098450 261.797363,389.444214 
M255.186234,385.263153 
	C255.027344,385.378479 254.868469,385.493805 254.709595,385.609161 
	C254.931213,385.585968 255.152832,385.562805 255.186234,385.263153 
M256.468781,387.595490 
	C256.468781,387.595490 256.399536,387.481689 256.468781,387.595490 
z"/>
<path fill="#268D9E" opacity="1.000000" stroke="none" 
	d="
M320.624268,364.789764 
	C316.297516,360.707001 312.110870,356.571320 314.894531,349.381653 
	C314.833008,348.983154 314.992432,348.509491 315.365173,348.151306 
	C316.624725,346.474548 317.511505,345.155945 318.398254,343.837341 
	C318.398285,343.837341 318.682129,343.705109 319.052002,343.431641 
	C321.282135,342.398376 323.142395,341.638580 325.414856,340.931335 
	C327.213867,340.995209 328.600708,341.006500 330.128784,341.115692 
	C330.270020,341.213562 330.610992,341.256317 330.790344,341.478882 
	C331.339081,342.114838 331.708496,342.528198 331.933899,343.215332 
	C330.249664,343.044312 328.553253,341.950836 327.198486,342.276886 
	C323.191986,343.241089 318.752350,344.700165 317.803436,349.146667 
	C317.127533,352.313721 318.213928,355.927643 318.859222,359.275604 
	C319.176239,360.920349 320.277588,362.413940 320.895325,364.165314 
	C320.766693,364.354675 320.624268,364.789764 320.624268,364.789764 
z"/>
<path fill="#2F929F" opacity="1.000000" stroke="none" 
	d="
M208.378296,365.038757 
	C207.560822,361.056091 207.128326,357.079865 207.060181,352.849365 
	C207.613571,354.875519 207.588364,357.202637 208.071411,359.419037 
	C208.365234,360.767090 209.443390,361.944214 210.714630,364.140350 
	C213.585999,354.238312 211.026581,346.063019 204.653946,343.445709 
	C202.262741,342.463623 199.287521,342.903564 196.737625,342.478119 
	C197.308670,341.932922 197.720673,341.604797 198.132675,341.276672 
	C198.537872,341.176849 198.943085,341.077026 200.053223,340.947052 
	C203.080154,341.375427 205.402161,341.833984 207.724152,342.292542 
	C207.724152,342.292542 207.860031,342.306366 207.906860,342.518219 
	C208.268875,342.885254 208.584045,343.040436 208.899231,343.195618 
	C208.950058,343.509247 209.102921,343.760895 209.678162,344.276398 
	C210.291885,344.792511 210.585281,344.982758 210.878662,345.173004 
	C210.878662,345.173004 210.874329,345.144348 210.859543,345.160706 
	C211.599655,350.945557 212.489197,356.700775 213.058014,362.487579 
	C213.388718,365.851898 211.495926,366.368439 208.378296,365.038757 
z"/>
<path fill="#328F9C" opacity="1.000000" stroke="none" 
	d="
M388.965485,365.202454 
	C388.993256,364.555206 389.110291,364.097321 389.687561,363.376953 
	C391.398315,362.948059 393.747955,362.702789 393.742462,362.626404 
	C393.368774,357.415741 396.591339,351.725037 391.694092,347.053406 
	C390.722778,346.126862 390.455933,344.461823 389.934204,343.063599 
	C390.004150,342.989868 390.142578,342.841095 390.142578,342.841095 
	C392.091522,346.071960 394.908020,349.091217 395.761383,352.589355 
	C396.743347,356.614624 395.989410,361.063385 395.989410,365.917969 
	C393.791046,365.917969 391.892181,365.917969 389.554626,365.861938 
	C389.115967,365.805908 389.054718,365.391785 388.965485,365.202454 
z"/>
<path fill="#D0F7FA" opacity="1.000000" stroke="none" 
	d="
M135.960144,343.906921 
	C136.569672,342.656189 136.871902,341.031525 137.849258,340.228333 
	C140.294006,338.219116 154.103836,338.833466 156.568573,341.215332 
	C154.872772,342.080353 153.494247,342.533386 151.956970,343.111694 
	C151.624619,343.469269 151.392914,343.589752 150.879272,343.321320 
	C145.523682,339.357056 140.687820,340.710510 135.960144,343.906921 
z"/>
<path fill="#D0F7FA" opacity="1.000000" stroke="none" 
	d="
M197.978607,340.904419 
	C197.720673,341.604797 197.308670,341.932922 196.499298,342.492249 
	C195.790619,342.814392 195.473724,342.842712 195.151230,342.808380 
	C195.151230,338.737305 195.151230,334.666260 195.151230,330.239563 
	C193.021973,330.129242 191.441116,330.047302 189.420624,329.903503 
	C190.853302,329.042145 194.101639,327.239502 194.370804,327.608704 
	C195.918427,329.731628 197.034912,332.292877 197.746536,334.858368 
	C198.235519,336.621246 197.830170,338.632141 197.978607,340.904419 
z"/>
<path fill="#2F929F" opacity="1.000000" stroke="none" 
	d="
M139.549500,365.899902 
	C132.278336,360.542267 130.832367,356.314392 133.610138,348.160889 
	C133.943970,347.949982 134.102188,348.100830 134.068298,348.495300 
	C133.409027,353.849640 132.843506,358.791656 138.139114,362.349487 
	C140.797455,363.309875 143.276520,363.976196 145.769379,364.586182 
	C146.873657,364.856445 148.005829,365.012756 148.890488,365.491760 
	C146.766281,366.162262 144.876923,366.561829 142.987549,366.961395 
	C142.987549,366.961395 142.672043,366.807861 142.337402,366.614899 
	C141.659515,366.379181 141.316269,366.336456 140.973022,366.293701 
	C140.596176,366.176544 140.219315,366.059387 139.549500,365.899902 
z"/>
<path fill="#2F929F" opacity="1.000000" stroke="none" 
	d="
M152.115723,342.986389 
	C153.494247,342.533386 154.872772,342.080353 156.640106,341.553314 
	C157.230087,341.539093 157.431229,341.598877 157.908829,341.809692 
	C158.160431,349.652740 158.135605,357.344727 158.067017,365.499634 
	C157.845612,366.001953 157.667938,366.041260 156.853012,366.067841 
	C154.778732,365.434967 153.341721,364.814850 152.295059,364.124268 
	C156.003555,363.702057 157.147324,361.634552 156.987335,358.566650 
	C156.708588,353.221710 157.953781,347.530884 153.568771,343.116577 
	C153.306503,342.852600 152.610107,343.019806 152.115723,342.986389 
z"/>
<path fill="#D3FBFD" opacity="1.000000" stroke="none" 
	d="
M231.942139,341.718628 
	C229.850906,339.512238 227.803101,336.911469 225.445251,333.811768 
	C224.723953,332.925842 224.312683,332.538879 223.901428,332.151886 
	C223.901428,332.151886 223.967865,332.073639 223.731186,331.728302 
	C221.320602,331.191772 219.146698,331.000580 216.972794,330.809387 
	C220.562195,326.867920 224.398621,329.530945 226.727341,331.674683 
	C229.278854,334.023499 230.298386,338.036530 231.942139,341.718628 
z"/>
<path fill="#F0F0F0" opacity="1.000000" stroke="none" 
	d="
M217.917221,382.933411 
	C220.442413,382.238037 222.967606,381.542633 225.492798,380.847260 
	C225.827469,381.360138 226.162155,381.873047 226.496841,382.385925 
	C224.435867,385.234924 222.414322,388.116364 220.183243,390.825226 
	C220.084457,390.945190 218.074966,389.491425 217.153183,388.898010 
	C219.252625,387.750244 220.941589,386.826904 222.630569,385.903564 
	C221.357391,384.953247 220.084229,384.002960 218.402374,383.026886 
	C217.993683,383.001129 217.917221,382.933411 217.917221,382.933411 
z"/>
<path fill="#2F929F" opacity="1.000000" stroke="none" 
	d="
M135.850769,344.134796 
	C140.687820,340.710510 145.523682,339.357056 150.863266,343.447479 
	C151.071075,343.850708 150.970032,344.082458 150.588593,344.045044 
	C141.509811,341.706024 139.646927,342.257751 136.579834,347.947632 
	C135.516769,348.004974 134.809479,348.052917 134.102188,348.100830 
	C134.102188,348.100830 133.943970,347.949982 133.863953,347.875397 
	C133.872009,347.425598 133.960068,347.050385 134.075165,346.386719 
	C134.102188,346.098297 134.073090,346.065063 134.313416,345.989532 
	C134.687729,345.603210 134.821732,345.292450 134.955719,344.981659 
	C135.217621,344.775330 135.479507,344.569000 135.850769,344.134796 
z"/>
<path fill="#4E9CA8" opacity="1.000000" stroke="none" 
	d="
M223.309204,366.048462 
	C220.911575,364.967804 217.045242,368.379608 216.328339,363.291473 
	C222.175156,366.147308 222.932327,365.678192 222.995789,358.985657 
	C223.031570,355.210663 223.166290,351.436615 223.499359,347.331909 
	C223.818253,352.361725 223.894180,357.721771 224.049271,363.542542 
	C223.946198,364.623596 223.763977,365.243927 223.309204,366.048462 
z"/>
<path fill="#D0F7FA" opacity="1.000000" stroke="none" 
	d="
M151.904709,364.194702 
	C153.341721,364.814850 154.778732,365.434967 156.592194,366.148376 
	C152.350601,366.717010 147.732559,367.192383 143.051025,367.314575 
	C144.876923,366.561829 146.766281,366.162262 149.174774,365.408630 
	C150.430832,364.767944 151.167770,364.481323 151.904709,364.194702 
z"/>
<path fill="#DDFBFC" opacity="1.000000" stroke="none" 
	d="
M325.002655,340.878784 
	C323.142395,341.638580 321.282135,342.398376 319.139435,343.301758 
	C318.038513,338.736420 321.277771,339.045746 324.665771,339.387451 
	C325.035767,340.102234 325.019196,340.490509 325.002655,340.878784 
z"/>
<path fill="#DDFBFC" opacity="1.000000" stroke="none" 
	d="
M361.849915,340.850586 
	C359.505249,341.155853 357.186676,341.085724 354.429779,340.975708 
	C356.528137,339.215851 358.959076,335.686951 361.849915,340.850586 
z"/>
<path fill="#D0F7FA" opacity="1.000000" stroke="none" 
	d="
M207.764877,341.920471 
	C205.402161,341.833984 203.080154,341.375427 200.351532,340.850647 
	C201.938431,337.748016 202.940308,337.845367 207.764877,341.920471 
z"/>
<path fill="#B9F5FA" opacity="1.000000" stroke="none" 
	d="
M247.158905,366.364868 
	C248.805038,365.999237 250.472900,365.982361 252.547852,366.056152 
	C251.508118,371.204987 249.310928,368.618652 247.158905,366.364868 
z"/>
<path fill="#DDFBFC" opacity="1.000000" stroke="none" 
	d="
M318.076782,343.620544 
	C317.511505,345.155945 316.624725,346.474548 315.444946,347.914520 
	C312.778076,344.669952 315.145660,343.968811 318.076782,343.620544 
z"/>
<path fill="#B9F5FA" opacity="1.000000" stroke="none" 
	d="
M332.077911,342.941559 
	C331.708496,342.528198 331.339081,342.114838 331.147491,341.381714 
	C331.567261,341.017090 331.809265,340.972229 332.051270,340.927338 
	C333.080200,340.920258 334.109131,340.913177 335.518555,340.845825 
	C336.740875,340.904266 337.582672,341.022980 338.692261,341.437897 
	C338.960083,341.734100 338.947906,342.013977 338.636078,341.943481 
	C337.900665,341.917694 337.477051,341.962433 336.707367,341.946533 
	C335.772186,342.509735 335.183105,343.133514 334.382477,343.587341 
	C333.473267,343.258759 332.775574,343.100159 332.077911,342.941559 
z"/>
<path fill="#4E9CA8" opacity="1.000000" stroke="none" 
	d="
M216.767151,330.977173 
	C219.146698,331.000580 221.320602,331.191772 223.680786,331.737976 
	C221.614731,332.365601 219.362396,332.638245 216.753845,333.015808 
	C216.301468,332.935852 216.205307,332.750916 216.006134,332.270691 
	C216.122589,331.698547 216.342041,331.421783 216.767151,330.977173 
z"/>
<path fill="#B9F5FA" opacity="1.000000" stroke="none" 
	d="
M325.414856,340.931335 
	C325.019196,340.490509 325.035767,340.102234 325.075592,339.426025 
	C326.487823,339.427002 327.876801,339.715973 329.627136,340.266266 
	C329.988525,340.527588 329.987518,341.017822 329.987518,341.017822 
	C328.600708,341.006500 327.213867,340.995209 325.414856,340.931335 
z"/>
<path fill="#F0F0F0" opacity="1.000000" stroke="none" 
	d="
M247.643570,389.439117 
	C247.046814,388.876434 246.730499,388.242279 246.414169,387.608093 
	C246.844284,387.542358 247.274399,387.476624 247.704514,387.410889 
	C247.777679,388.063141 247.850830,388.715363 247.643570,389.439117 
z"/>
<path fill="#DDFBFC" opacity="1.000000" stroke="none" 
	d="
M351.982391,341.085388 
	C351.635895,341.609833 351.147858,341.852203 350.355377,342.087921 
	C350.647552,341.655304 351.244171,341.229340 351.982391,341.085388 
z"/>
<path fill="#DDFBFC" opacity="1.000000" stroke="none" 
	d="
M330.128784,341.115692 
	C329.987518,341.017822 329.988525,340.527588 329.989410,340.282867 
	C330.645386,340.144379 331.300507,340.250641 332.003418,340.642090 
	C331.809265,340.972229 331.567261,341.017090 330.968140,341.159119 
	C330.610992,341.256317 330.270020,341.213562 330.128784,341.115692 
z"/>
<path fill="#D0F7FA" opacity="1.000000" stroke="none" 
	d="
M134.726166,345.093933 
	C134.821732,345.292450 134.687729,345.603210 134.310699,346.008240 
	C134.210648,345.803741 134.353622,345.504944 134.726166,345.093933 
z"/>
<path fill="#F0F0F0" opacity="1.000000" stroke="none" 
	d="
M218.027954,383.039001 
	C217.921799,383.081543 217.781387,383.086212 217.779099,383.012146 
	C217.917221,382.933411 217.993683,383.001129 218.027954,383.039001 
z"/>
<path fill="#D0F7FA" opacity="1.000000" stroke="none" 
	d="
M141.145172,366.490540 
	C141.316269,366.336456 141.659515,366.379181 142.163254,366.636047 
	C141.988266,366.795898 141.652786,366.741608 141.145172,366.490540 
z"/>
<path fill="#D0F7FA" opacity="1.000000" stroke="none" 
	d="
M208.817932,342.924683 
	C208.584045,343.040436 208.268875,342.885254 207.846237,342.486816 
	C208.071396,342.380249 208.404022,342.516998 208.817932,342.924683 
z"/>
<path fill="#DDFBFC" opacity="1.000000" stroke="none" 
	d="
M362.867004,341.602783 
	C362.684143,341.741913 362.361603,341.679932 361.922546,341.393311 
	C362.153564,341.086853 362.460632,341.164520 362.867004,341.602783 
z"/>
<path fill="#D0F7FA" opacity="1.000000" stroke="none" 
	d="
M210.809418,344.898132 
	C210.585281,344.982758 210.291885,344.792511 209.888779,344.356445 
	C210.099426,344.281525 210.419800,344.452393 210.809418,344.898132 
z"/>
<path fill="#F0FCFC" opacity="1.000000" stroke="none" 
	d="
M310.979980,212.387756 
	C307.783173,224.512894 293.667175,226.781937 286.779114,219.587311 
	C282.169067,214.772018 280.975983,208.115265 284.138824,202.225098 
	C287.210144,196.505249 293.910431,193.598358 300.258911,195.231384 
	C306.605377,196.863876 311.039978,202.418716 311.202332,208.988617 
	C311.226868,209.981766 311.095520,210.978790 310.979980,212.387756 
z"/>
<path fill="#2A95A4" opacity="1.000000" stroke="none" 
	d="
M242.169952,193.199127 
	C241.788300,198.083923 237.877991,199.517944 234.265793,201.129349 
	C225.354080,205.104843 209.762695,203.691483 202.932693,194.494766 
	C195.858749,184.969604 195.238129,170.883820 201.579132,165.031036 
	C201.987045,164.983612 202.132202,165.110809 202.056351,165.473511 
	C194.779327,180.684250 201.476028,196.783478 216.691895,200.925690 
	C226.749847,203.663757 234.902008,199.972839 241.998428,193.008484 
	C242.058105,193.069733 242.169952,193.199127 242.169952,193.199127 
z"/>
<path fill="#2A95A4" opacity="1.000000" stroke="none" 
	d="
M201.914322,164.920166 
	C203.761642,161.979477 205.066055,158.207779 207.712677,156.386215 
	C217.119141,149.912079 227.281158,150.904388 237.214035,155.319397 
	C238.875275,156.057770 239.797134,158.459579 241.053741,160.517197 
	C241.046814,160.941635 240.916733,161.071335 240.607117,160.933487 
	C226.673035,149.812485 212.996597,151.358810 202.132202,165.110809 
	C202.132202,165.110809 201.987045,164.983612 201.914322,164.920166 
z"/>
<path fill="#2A95A4" opacity="1.000000" stroke="none" 
	d="
M245.172119,166.841705 
	C249.731369,169.471710 249.096802,174.171829 248.790421,178.062592 
	C248.426163,182.688187 246.705444,187.224442 245.357025,191.734970 
	C245.169266,192.362961 243.750931,192.623077 242.536102,193.126312 
	C242.169952,193.199127 242.058105,193.069733 242.086304,192.666718 
	C248.008942,184.417511 247.974640,175.916016 244.966919,167.019485 
	C245.035721,166.960678 245.172119,166.841705 245.172119,166.841705 
z"/>
<path fill="#2A95A4" opacity="1.000000" stroke="none" 
	d="
M241.108322,160.873413 
	C242.130051,161.925003 243.090271,163.044815 243.996887,164.608063 
	C243.943268,165.051498 243.784012,165.185806 243.518143,165.009430 
	C242.473755,163.579132 241.695236,162.325241 240.916733,161.071335 
	C240.916733,161.071335 241.046814,160.941635 241.108322,160.873413 
z"/>
<path fill="#2A95A4" opacity="1.000000" stroke="none" 
	d="
M244.024017,164.985718 
	C244.414215,165.377960 244.723663,165.835999 245.102600,166.567871 
	C245.172119,166.841705 245.035721,166.960678 244.729782,166.857254 
	C244.210571,166.231155 243.997299,165.708481 243.784012,165.185806 
	C243.784012,165.185806 243.943268,165.051498 244.024017,164.985718 
z"/>
<path fill="#4E9CA8" opacity="1.000000" stroke="none" 
	d="
M223.949921,332.447266 
	C224.312683,332.538879 224.723953,332.925842 225.198196,333.597412 
	C224.840256,333.502228 224.419327,333.122406 223.949921,332.447266 
z"/>
<path fill="#0895AB" opacity="1.000000" stroke="none" 
	d="
M378.552368,349.414062 
	C377.715179,351.324707 376.474915,353.155151 376.106293,355.146881 
	C375.596252,357.902863 375.742249,360.780273 375.569458,364.397217 
	C370.355103,359.992889 371.239410,336.160583 376.035065,333.424622 
	C376.448090,336.241669 376.839264,338.909637 377.537750,341.738647 
	C378.067810,342.165405 378.290527,342.431122 378.759369,343.166870 
	C378.858765,345.556854 378.712036,347.476776 378.565277,349.396729 
	C378.565277,349.396729 378.538055,349.405823 378.552368,349.414062 
z"/>
<path fill="#328F9C" opacity="1.000000" stroke="none" 
	d="
M378.859863,349.240967 
	C378.712036,347.476776 378.858765,345.556854 379.016052,343.214355 
	C379.684082,342.395264 380.341583,341.998779 381.401367,341.696350 
	C381.803711,341.790405 382.011383,342.015411 381.872620,342.312592 
	C382.798096,344.041046 383.862396,345.472321 384.926697,346.903564 
	C383.002594,347.630768 381.078522,348.358002 378.859863,349.240967 
z"/>
<path fill="#328F9C" opacity="1.000000" stroke="none" 
	d="
M381.703064,341.675079 
	C384.291992,341.793579 386.981567,342.027435 389.906860,342.551208 
	C390.142578,342.841095 390.004150,342.989868 389.542480,343.016663 
	C386.724304,342.700806 384.367859,342.358093 382.011383,342.015411 
	C382.011383,342.015411 381.803711,341.790405 381.703064,341.675079 
z"/>
<path fill="#D3FBFD" opacity="1.000000" stroke="none" 
	d="
M306.540619,357.085480 
	C306.973663,357.964600 306.948639,358.774567 306.874756,359.987457 
	C304.079773,360.555878 301.299103,361.051697 298.599976,360.768890 
	C296.850311,360.585571 295.219757,359.265167 293.535828,358.454224 
	C293.615509,357.974945 293.695221,357.495636 293.774902,357.016357 
	C297.877472,357.016357 301.980011,357.016357 306.540619,357.085480 
z"/>
<path fill="#B9F5FA" opacity="1.000000" stroke="none" 
	d="
M294.543243,348.458130 
	C298.805664,345.790802 301.637238,346.831696 303.837830,351.512878 
	C300.089233,351.512878 296.768036,351.512878 292.997681,351.512878 
	C293.498840,350.419312 293.883545,349.579895 294.543243,348.458130 
z"/>
<path fill="#B9F5FA" opacity="1.000000" stroke="none" 
	d="
M120.218597,349.814606 
	C119.299652,350.723358 118.195465,351.683807 116.982338,351.850250 
	C114.892014,352.137024 112.733879,351.929657 110.528969,351.929657 
	C112.161140,346.121765 115.519478,345.352112 120.218597,349.814606 
z"/>
<path fill="#2093A3" opacity="1.000000" stroke="none" 
	d="
M180.839661,348.923187 
	C180.453934,348.935211 180.068222,348.947205 179.215088,348.621643 
	C175.412674,346.096924 171.782486,346.215393 170.311310,349.820496 
	C169.266571,352.380615 169.460678,356.623108 170.989883,358.769653 
	C173.070267,361.689850 176.804718,361.472473 179.487839,358.262085 
	C180.728027,359.922760 181.968231,361.583405 183.057678,363.515350 
	C172.732758,370.098083 164.419952,363.926086 162.460617,356.869476 
	C160.848495,351.063416 163.861496,344.752258 169.677643,342.052246 
	C175.078552,339.544983 180.713272,341.092804 183.796906,346.282501 
	C183.742310,346.619263 183.766983,346.652863 183.481293,346.734192 
	C182.800049,347.211517 182.404510,347.607452 182.008957,348.003418 
	C182.008957,348.003418 182.000000,347.999115 181.734161,348.043152 
	C181.258759,348.365845 181.049210,348.644531 180.839661,348.923187 
z"/>
<path fill="#0895AB" opacity="1.000000" stroke="none" 
	d="
M266.036926,338.342529 
	C265.429657,337.438873 264.983673,336.744324 264.357788,336.307831 
	C263.717560,335.861298 262.900879,335.667725 261.288666,335.004242 
	C265.864441,330.034668 271.259430,332.642761 275.871063,332.107574 
	C277.235718,331.949219 278.770355,333.256104 279.989868,334.397308 
	C272.028259,337.669617 272.030609,337.669617 272.040649,346.737701 
	C272.044708,350.399872 272.233032,354.078217 271.935089,357.716248 
	C271.816895,359.159668 270.606842,360.513641 269.893860,361.908325 
	C269.253387,360.438507 268.148315,358.995819 268.060486,357.493683 
	C267.808289,353.180267 268.032288,348.841217 267.928711,344.515625 
	C267.894592,343.091553 267.431396,341.677795 266.820129,340.102600 
	C266.356934,339.518890 266.238098,339.091919 266.036926,338.342529 
z"/>
<path fill="#268D9E" opacity="1.000000" stroke="none" 
	d="
M338.968872,341.594299 
	C339.645844,342.677246 340.857117,343.884766 340.891846,345.125244 
	C341.081604,351.902161 340.982208,358.687134 340.982208,366.705322 
	C338.234741,365.791595 336.151428,365.098755 333.613586,364.285889 
	C333.159027,364.165863 332.956543,363.959656 332.905579,363.602631 
	C331.229431,362.456055 329.604309,361.666504 328.175659,360.564331 
	C334.258698,359.017120 335.576660,355.456177 333.158142,348.304565 
	C338.121887,350.700531 336.237152,354.545135 335.012115,357.625641 
	C333.401428,361.675873 334.012878,363.463440 338.947906,363.453217 
	C338.947906,356.187988 338.947906,349.100983 338.947906,342.013977 
	C338.947906,342.013977 338.960083,341.734100 338.968872,341.594299 
z"/>
<path fill="#268D9E" opacity="1.000000" stroke="none" 
	d="
M333.258362,364.270844 
	C329.477539,367.378601 325.391174,366.963409 320.921082,364.949036 
	C320.624268,364.789764 320.766693,364.354675 321.302887,364.170227 
	C325.544891,363.977051 329.250732,363.968353 332.956543,363.959656 
	C332.956543,363.959656 333.159027,364.165863 333.258362,364.270844 
z"/>
<path fill="#D0F7FA" opacity="1.000000" stroke="none" 
	d="
M179.035004,358.185303 
	C176.804718,361.472473 173.070267,361.689850 170.989883,358.769653 
	C169.460678,356.623108 169.266571,352.380615 170.311310,349.820496 
	C171.782486,346.215393 175.412674,346.096924 178.925812,348.612305 
	C178.109344,348.962799 176.821762,348.595459 176.175613,349.081238 
	C174.312851,350.481659 172.708862,352.226257 171.003235,353.835693 
	C172.700851,355.232483 174.330399,356.728271 176.135590,357.968445 
	C176.711441,358.364014 177.753464,358.081024 179.035004,358.185303 
z"/>
<path fill="#D0F7FA" opacity="1.000000" stroke="none" 
	d="
M182.322876,347.989868 
	C182.404510,347.607452 182.800049,347.211517 183.475937,346.753906 
	C183.383118,347.120239 183.009949,347.548248 182.322876,347.989868 
z"/>
<path fill="#D0F7FA" opacity="1.000000" stroke="none" 
	d="
M181.097977,348.868164 
	C181.049210,348.644531 181.258759,348.365845 181.734833,348.047699 
	C181.786316,348.276550 181.571304,348.544830 181.097977,348.868164 
z"/>
<path fill="#0895AB" opacity="1.000000" stroke="none" 
	d="
M194.790680,342.812531 
	C195.473724,342.842712 195.790619,342.814392 196.340240,342.709351 
	C199.287521,342.903564 202.262741,342.463623 204.653946,343.445709 
	C211.026581,346.063019 213.585999,354.238312 210.714630,364.140350 
	C209.443390,361.944214 208.365234,360.767090 208.071411,359.419037 
	C207.588364,357.202637 207.613571,354.875519 207.065140,352.404541 
	C206.705780,352.213989 206.738892,352.210541 206.830673,351.801636 
	C206.195053,350.337006 205.467636,349.281250 204.740219,348.225494 
	C204.740219,348.225494 204.818771,348.151062 204.750320,347.844788 
	C202.543488,346.515778 200.546799,342.918060 198.117737,347.177277 
	C198.117737,347.177277 198.012375,347.094513 197.743042,347.085205 
	C197.105972,347.521484 196.738235,347.967041 196.370499,348.412598 
	C196.370499,348.412598 196.347000,348.445679 196.353821,348.465759 
	C192.879471,348.497009 193.853424,350.904846 193.818909,352.959991 
	C193.759003,356.526550 193.458206,360.089020 192.694244,363.600464 
	C189.157867,360.313538 189.117645,336.827606 192.750504,332.315948 
	C193.061874,335.536743 193.216232,337.796997 193.527084,340.035492 
	C193.659088,340.986023 194.119156,341.890991 194.790680,342.812531 
z"/>
<path fill="#2F929F" opacity="1.000000" stroke="none" 
	d="
M198.508057,347.169617 
	C200.546799,342.918060 202.543488,346.515778 204.759491,347.898132 
	C202.857544,347.892456 200.877975,347.527191 198.508057,347.169617 
z"/>
<path fill="#2F929F" opacity="1.000000" stroke="none" 
	d="
M204.802795,348.542908 
	C205.467636,349.281250 206.195053,350.337006 206.837952,351.790039 
	C206.124084,351.078339 205.494736,349.969299 204.802795,348.542908 
z"/>
<path fill="#2F929F" opacity="1.000000" stroke="none" 
	d="
M196.652512,348.360809 
	C196.738235,347.967041 197.105972,347.521484 197.807861,347.102112 
	C197.739517,347.521881 197.337021,347.915436 196.652512,348.360809 
z"/>
<path fill="#0F92A7" opacity="1.000000" stroke="none" 
	d="
M381.872620,342.312592 
	C384.367859,342.358093 386.724304,342.700806 389.472534,343.090393 
	C390.455933,344.461823 390.722778,346.126862 391.694092,347.053406 
	C396.591339,351.725037 393.368774,357.415741 393.742462,362.626404 
	C393.747955,362.702789 391.398315,362.948059 389.799194,363.039490 
	C389.408295,361.911499 389.366058,360.858582 389.695251,359.336609 
	C389.892761,357.897644 389.718842,356.927765 389.544922,355.957855 
	C389.419647,354.894287 389.294373,353.830719 389.320251,352.264923 
	C389.328857,351.522552 389.186310,351.282440 389.043762,351.042297 
	C387.859192,349.778839 386.674652,348.515411 385.208374,347.077759 
	C383.862396,345.472321 382.798096,344.041046 381.872620,342.312592 
z"/>
<path fill="#328F9C" opacity="1.000000" stroke="none" 
	d="
M389.417542,356.332184 
	C389.718842,356.927765 389.892761,357.897644 389.797028,358.951569 
	C389.448334,358.259216 389.369263,357.482880 389.417542,356.332184 
z"/>
<path fill="#328F9C" opacity="1.000000" stroke="none" 
	d="
M389.022583,351.281250 
	C389.186310,351.282440 389.328857,351.522552 389.331512,351.861694 
	C389.191620,351.960663 389.001404,351.520172 389.022583,351.281250 
z"/>
<path fill="#FEFFFF" opacity="1.000000" stroke="none" 
	d="
M255.280334,385.401367 
	C255.152832,385.562805 254.931213,385.585968 254.709595,385.609161 
	C254.868469,385.493805 255.027344,385.378479 255.280334,385.401367 
z"/>
<path fill="#FEFFFF" opacity="1.000000" stroke="none" 
	d="
M256.434143,387.538574 
	C256.399536,387.481689 256.468781,387.595490 256.434143,387.538574 
z"/>
<path fill="#0895AB" opacity="1.000000" stroke="none" 
	d="
M332.905579,363.602600 
	C329.250732,363.968353 325.544891,363.977051 321.431519,363.980835 
	C320.277588,362.413940 319.176239,360.920349 318.859222,359.275604 
	C318.213928,355.927643 317.127533,352.313721 317.803436,349.146667 
	C318.752350,344.700165 323.191986,343.241089 327.198486,342.276886 
	C328.553253,341.950836 330.249664,343.044312 331.933899,343.215332 
	C332.775574,343.100159 333.473267,343.258759 334.738647,343.631104 
	C335.888763,343.232300 336.471100,342.619751 337.053467,342.007172 
	C337.477051,341.962433 337.900665,341.917694 338.636078,341.943481 
	C338.947906,349.100983 338.947906,356.187988 338.947906,363.453217 
	C334.012878,363.463440 333.401428,361.675873 335.012115,357.625641 
	C336.237152,354.545135 338.121887,350.700531 333.168762,348.274841 
	C332.789459,348.314880 332.841858,348.282379 332.749481,347.970093 
	C332.068695,347.470154 331.480316,347.282501 330.926727,347.067139 
	C330.961548,347.039429 330.961151,347.128448 330.732544,346.814301 
	C328.374146,346.743591 326.244324,346.987000 323.951508,347.527588 
	C320.666901,350.156921 320.189453,353.217316 321.353210,356.718842 
	C322.417053,359.919922 324.747192,361.121490 327.979156,360.876923 
	C329.604309,361.666504 331.229431,362.456055 332.905579,363.602600 
z"/>
<path fill="#0895AB" opacity="1.000000" stroke="none" 
	d="
M152.295059,364.124268 
	C151.167770,364.481323 150.430832,364.767944 149.409607,365.137695 
	C148.005829,365.012756 146.873657,364.856445 145.769379,364.586182 
	C143.276520,363.976196 140.797455,363.309875 138.313477,362.088745 
	C138.878525,360.702576 139.442871,359.894196 140.022949,358.861816 
	C140.038666,358.637878 140.021729,358.191223 140.195374,358.223389 
	C140.369003,358.255585 140.722168,358.258545 140.834763,358.480652 
	C141.160355,358.978424 141.437408,359.151489 141.820282,359.420715 
	C141.862045,359.619476 141.992813,360.004059 142.167542,360.332611 
	C145.077530,362.363007 147.747238,363.627808 149.730835,359.561707 
	C149.842697,359.553253 149.621521,359.515625 150.009949,359.626526 
	C153.876251,356.565308 154.033340,353.168518 150.989883,346.654236 
	C150.985580,345.551483 150.977814,344.816986 150.970032,344.082458 
	C150.970032,344.082458 151.071075,343.850708 151.087067,343.724548 
	C151.392914,343.589752 151.624619,343.469269 151.956970,343.111694 
	C152.610107,343.019806 153.306503,342.852600 153.568771,343.116577 
	C157.953781,347.530884 156.708588,353.221710 156.987335,358.566650 
	C157.147324,361.634552 156.003555,363.702057 152.295059,364.124268 
z"/>
<path fill="#0F92A7" opacity="1.000000" stroke="none" 
	d="
M140.007233,359.085785 
	C139.442871,359.894196 138.878525,360.702576 138.139816,361.771759 
	C132.843506,358.791656 133.409027,353.849640 134.068298,348.495300 
	C134.809479,348.052917 135.516769,348.004974 136.611389,347.975464 
	C136.998703,347.993835 137.062561,348.045013 137.195740,348.367218 
	C138.445694,351.587402 134.829239,355.582886 139.381744,357.634949 
	C139.350555,357.592926 139.450943,357.622467 139.385941,357.905090 
	C139.549698,358.487091 139.778458,358.786438 140.007233,359.085785 
z"/>
<path fill="#0F92A7" opacity="1.000000" stroke="none" 
	d="
M150.588593,344.045044 
	C150.977814,344.816986 150.985580,345.551483 150.606934,346.670258 
	C149.726898,347.185181 149.233276,347.315857 148.851868,347.389038 
	C148.964081,347.331604 148.721481,347.400299 148.630005,347.045593 
	C145.865509,346.180542 142.703995,343.111938 141.041183,348.070099 
	C140.998688,348.025787 141.104507,348.087982 140.699158,348.060669 
	C139.216736,348.037231 138.139648,348.041107 137.062561,348.045013 
	C137.062561,348.045013 136.998703,347.993835 136.967163,347.966034 
	C139.646927,342.257751 141.509811,341.706024 150.588593,344.045044 
z"/>
<path fill="#268D9E" opacity="1.000000" stroke="none" 
	d="
M336.707367,341.946533 
	C336.471100,342.619751 335.888763,343.232300 334.950195,343.801086 
	C335.183105,343.133514 335.772186,342.509735 336.707367,341.946533 
z"/>
<path fill="#F6FEFE" opacity="1.000000" stroke="none" 
	d="
M243.518143,165.009430 
	C243.997299,165.708481 244.210571,166.231155 244.660980,166.916061 
	C247.974640,175.916016 248.008942,184.417511 242.026627,192.605469 
	C234.902008,199.972839 226.749847,203.663757 216.691895,200.925690 
	C201.476028,196.783478 194.779327,180.684250 202.056351,165.473511 
	C212.996597,151.358810 226.673035,149.812485 240.607117,160.933487 
	C241.695236,162.325241 242.473755,163.579132 243.518143,165.009430 
z"/>
<path fill="#D0F7FA" opacity="1.000000" stroke="none" 
	d="
M328.175659,360.564331 
	C324.747192,361.121490 322.417053,359.919922 321.353210,356.718842 
	C320.189453,353.217316 320.666901,350.156921 324.376953,347.502258 
	C326.963989,347.162659 328.962585,347.145569 330.961151,347.128479 
	C330.961151,347.128448 330.961548,347.039429 331.094940,347.312836 
	C331.766174,347.818298 332.304016,348.050323 332.841858,348.282379 
	C332.841858,348.282379 332.789459,348.314880 332.778839,348.344604 
	C335.576660,355.456177 334.258698,359.017120 328.175659,360.564331 
M326.478394,350.210266 
	C326.014038,351.607208 325.048553,353.074432 325.231659,354.380524 
	C325.401703,355.593140 326.645935,356.833954 327.727020,357.653839 
	C328.172516,357.991699 330.009979,357.488403 330.208893,356.976807 
	C330.895233,355.211456 331.711304,353.139618 331.317047,351.456451 
	C331.109131,350.568878 328.495117,350.244904 326.478394,350.210266 
z"/>
<path fill="#268D9E" opacity="1.000000" stroke="none" 
	d="
M330.732544,346.814331 
	C328.962585,347.145569 326.963989,347.162659 324.539978,347.205078 
	C326.244324,346.987000 328.374146,346.743591 330.732544,346.814331 
z"/>
<path fill="#268D9E" opacity="1.000000" stroke="none" 
	d="
M332.749481,347.970093 
	C332.304016,348.050323 331.766174,347.818298 331.060120,347.340546 
	C331.480316,347.282501 332.068695,347.470154 332.749481,347.970093 
z"/>
<path fill="#D0F7FA" opacity="1.000000" stroke="none" 
	d="
M140.722168,358.258545 
	C140.722168,358.258545 140.369003,358.255585 140.105927,358.027405 
	C139.842850,357.799225 139.450943,357.622467 139.450943,357.622467 
	C139.450943,357.622467 139.350555,357.592926 139.319672,357.238800 
	C139.894028,353.952454 140.499268,351.020203 141.104507,348.087982 
	C141.104507,348.087982 140.998688,348.025787 141.417511,347.966614 
	C144.131378,347.738373 146.426422,347.569336 148.721481,347.400299 
	C148.721481,347.400299 148.964081,347.331604 149.056458,347.683533 
	C152.542191,351.728943 151.603775,355.600800 149.621521,359.515625 
	C149.621521,359.515625 149.842697,359.553253 149.347229,359.606384 
	C147.562286,359.801300 146.272812,359.943054 145.020081,359.717712 
	C145.822052,358.582977 146.721832,357.906982 147.321320,357.026520 
	C148.243225,355.672546 149.934494,353.760559 149.539810,352.838562 
	C148.903915,351.353088 146.812561,349.571045 145.377121,349.605865 
	C143.939056,349.640778 142.092682,351.503967 141.282944,353.022980 
	C140.604370,354.295959 141.161743,356.227783 141.058594,357.964600 
	C140.945312,358.061279 140.722168,358.258545 140.722168,358.258545 
z"/>
<path fill="#2A95A4" opacity="1.000000" stroke="none" 
	d="
M150.009949,359.626526 
	C151.603775,355.600800 152.542191,351.728943 148.944244,347.740967 
	C149.233276,347.315857 149.726898,347.185181 150.603470,347.038483 
	C154.033340,353.168518 153.876251,356.565308 150.009949,359.626526 
z"/>
<path fill="#2A95A4" opacity="1.000000" stroke="none" 
	d="
M144.983353,360.084808 
	C146.272812,359.943054 147.562286,359.801300 149.235367,359.614868 
	C147.747238,363.627808 145.077530,362.363007 142.428192,360.295349 
	C142.684464,359.887543 142.854813,359.845490 143.336884,359.933228 
	C144.093506,360.070282 144.538437,360.077545 144.983353,360.084808 
z"/>
<path fill="#D0F7FA" opacity="1.000000" stroke="none" 
	d="
M143.025177,359.803436 
	C142.854813,359.845490 142.684464,359.887543 142.253448,359.966797 
	C141.992813,360.004059 141.862045,359.619476 141.910706,359.329468 
	C141.959381,359.039490 142.140503,358.857330 142.321930,358.981689 
	C142.745590,359.287415 142.919540,359.519867 143.025177,359.803436 
z"/>
<path fill="#D0F7FA" opacity="1.000000" stroke="none" 
	d="
M141.868958,359.130737 
	C141.437408,359.151489 141.160355,358.978424 140.834763,358.480652 
	C140.722168,358.258545 140.945312,358.061279 141.243622,358.104553 
	C141.779602,358.352173 141.979126,358.588654 142.140503,358.857330 
	C142.140503,358.857330 141.959381,359.039490 141.868958,359.130737 
z"/>
<path fill="#2A95A4" opacity="1.000000" stroke="none" 
	d="
M139.385941,357.905090 
	C139.450943,357.622467 139.842850,357.799225 139.932281,357.995239 
	C140.021729,358.191223 140.038666,358.637878 140.022949,358.861816 
	C139.778458,358.786438 139.549698,358.487091 139.385941,357.905090 
z"/>
<path fill="#2A95A4" opacity="1.000000" stroke="none" 
	d="
M140.699158,348.060669 
	C140.499268,351.020203 139.894028,353.952454 139.350845,357.280823 
	C134.829239,355.582886 138.445694,351.587402 137.195740,348.367218 
	C138.139648,348.041107 139.216736,348.037231 140.699158,348.060669 
z"/>
<path fill="#2A95A4" opacity="1.000000" stroke="none" 
	d="
M148.630005,347.045593 
	C146.426422,347.569336 144.131378,347.738373 141.459991,348.010925 
	C142.703995,343.111938 145.865509,346.180542 148.630005,347.045593 
z"/>
<path fill="#F6FEFE" opacity="1.000000" stroke="none" 
	d="
M326.722931,349.938354 
	C328.495117,350.244904 331.109131,350.568878 331.317047,351.456451 
	C331.711304,353.139618 330.895233,355.211456 330.208893,356.976807 
	C330.009979,357.488403 328.172516,357.991699 327.727020,357.653839 
	C326.645935,356.833954 325.401703,355.593140 325.231659,354.380524 
	C325.048553,353.074432 326.014038,351.607208 326.722931,349.938354 
z"/>
<path fill="#F6FEFE" opacity="1.000000" stroke="none" 
	d="
M142.321930,358.981689 
	C141.979126,358.588654 141.779602,358.352173 141.356903,358.007874 
	C141.161743,356.227783 140.604370,354.295959 141.282944,353.022980 
	C142.092682,351.503967 143.939056,349.640778 145.377121,349.605865 
	C146.812561,349.571045 148.903915,351.353088 149.539810,352.838562 
	C149.934494,353.760559 148.243225,355.672546 147.321320,357.026520 
	C146.721832,357.906982 145.822052,358.582977 145.020081,359.717712 
	C144.538437,360.077545 144.093506,360.070282 143.336884,359.933228 
	C142.919540,359.519867 142.745590,359.287415 142.321930,358.981689 
z"/>
</svg>